# xmcd
# 
# Track frame offsets:
#     150
#     13195
#     27940
#     38261
#     55360
#     69084
#     80631
#     93092
#     107035
#     117917
#     129938
#     148298
# 
# Disc length: 2165
# 
# Revision: 0
# Processed by: cddbd v1.5.2PL0 Copyright (c) Steve Scherf et al.
# Submitted via: fre:ac v1.0.17
# 
DISCID=9608730c
DTITLE=Idletymes - Another Tyme
DYEAR=2009
DGENRE=Country
TTITLE0=Place That Has No Yesterday
TTITLE1=I'm Over You
TTITLE2=Up On The Blueridge
TTITLE3=January Snow
TTITLE4=I'll Take The Blame
TTITLE5=My Rock
TTITLE6=Another Tyme
TTITLE7=Somewhere Between
TTITLE8=First Day In Town
TTITLE9=Love Come Home
TTITLE10=Three Rusty Nails
TTITLE11=Little White Church
EXTD=
EXTT0=
EXTT1=
EXTT2=
EXTT3=
EXTT4=
EXTT5=
EXTT6=
EXTT7=
EXTT8=
EXTT9=
EXTT10=
EXTT11=
PLAYORDER=
